<svg width="27" height="23" viewBox="0 0 27 23" fill="none" xmlns="http://www.w3.org/2000/svg">
<path d="M13.5 20.5889C12.9477 20.5889 12.5 21.0366 12.5 21.5889C12.5 22.1412 12.9477 22.5889 13.5 22.5889V20.5889ZM26 22.5889C26.5523 22.5889 27 22.1412 27 21.5889C27 21.0366 26.5523 20.5889 26 20.5889V22.5889ZM19.75 2.56576L19.1113 1.79632V1.79632L19.75 2.56576ZM24.7796 4.29514H23.7796H24.7796ZM23.9167 6.02452L23.278 5.25507L23.9167 6.02452ZM6.55556 20.436L6.75875 21.4151C6.91889 21.3819 7.06843 21.3099 7.19427 21.2055L6.55556 20.436ZM1 21.5889L0.042482 21.3006C-0.0591826 21.6381 0.0244137 22.0043 0.262506 22.2643C0.500599 22.5243 0.858006 22.6397 1.2032 22.5681L1 21.5889ZM2.38889 16.9773L1.75017 16.2078C1.59894 16.3333 1.48805 16.5007 1.43137 16.6889L2.38889 16.9773ZM13.5 22.5889H26V20.5889H13.5V22.5889ZM20.3887 3.3352C20.7455 3.03905 21.2632 2.84943 21.8333 2.84943V0.849426C20.8407 0.849426 19.8596 1.17515 19.1113 1.79632L20.3887 3.3352ZM21.8333 2.84943C22.1122 2.84943 22.3853 2.89517 22.6357 2.98126L23.286 1.08993C22.8214 0.930198 22.3282 0.849426 21.8333 0.849426V2.84943ZM22.6357 2.98126C22.8861 3.06736 23.1031 3.19007 23.278 3.3352L24.5554 1.79632C24.183 1.48724 23.7505 1.24965 23.286 1.08993L22.6357 2.98126ZM23.278 3.3352C23.4525 3.4801 23.5789 3.64202 23.6606 3.8057L25.4501 2.91271C25.2357 2.48293 24.928 2.10562 24.5554 1.79632L23.278 3.3352ZM23.6606 3.8057C23.7417 3.96841 23.7796 4.13406 23.7796 4.29514H25.7796C25.7796 3.81387 25.6651 3.34345 25.4501 2.91271L23.6606 3.8057ZM23.7796 4.29514C23.7796 4.45622 23.7417 4.62186 23.6606 4.78458L25.4501 5.67756C25.6651 5.24682 25.7796 4.77641 25.7796 4.29514H23.7796ZM23.6606 4.78458C23.5789 4.94825 23.4525 5.11017 23.278 5.25507L24.5554 6.79396C24.928 6.48465 25.2357 6.10735 25.4501 5.67756L23.6606 4.78458ZM23.278 5.25507L5.91684 19.6666L7.19427 21.2055L24.5554 6.79396L23.278 5.25507ZM6.35236 19.4569L0.796804 20.6098L1.2032 22.5681L6.75875 21.4151L6.35236 19.4569ZM1.95752 21.8773L3.34641 17.2656L1.43137 16.6889L0.042482 21.3006L1.95752 21.8773ZM3.0276 17.7467L20.3887 3.3352L19.1113 1.79632L1.75017 16.2078L3.0276 17.7467Z" fill="#858585"/>
</svg>
